<?xml version="1.0" encoding="UTF-8"?>
<!DOCTYPE svg PUBLIC "-//W3C//DTD SVG 1.1//EN"
  "http://www.w3.org/Graphics/SVG/1.1/DTD/svg11.dtd">
<!-- Created with Inkpad (http://www.taptrix.com/) --><svg xmlns:inkpad="http://taptrix.com/inkpad/svg_extensions" height="841.89pt" xmlns:xlink="http://www.w3.org/1999/xlink" xmlns="http://www.w3.org/2000/svg" width="595.28pt" version="1.1" viewBox="0,0,595.28,841.89">
<metadata>
<inkpad:setting key="RulersVisible" value="0"/>
<inkpad:setting key="GridSpacing" value="36"/>
<inkpad:setting key="Units" value="Centimeters"/>
<inkpad:setting key="DynamicGuides" value="0"/>
<inkpad:setting key="SnapToPoints" value="0"/>
<inkpad:setting key="SnapToGrid" value="0"/>
<inkpad:setting key="ShowGrid" value="0"/>
<inkpad:setting key="SnapToEdges" value="0"/>
</metadata>
<defs/>
<g id="Layer 1" inkpad:layerName="Layer 1">
<path d="M237.154+392.915C239.867+398.409+227.893+382.124+226.827+379.637C222.14+368.702+213.947+358.618+208.14+348.165C192.457+319.935+175.966+279.188+172.733+246.863C164.126+160.788+221.881+105.229+308.459+126.874C372.365+142.85+395.202+215.104+374.354+272.434C346.335+349.487+247.421+434.785+193.387+499.626C176.942+519.361+132.049+564.081+139.294+593.06C143.992+611.851+169.883+605.983+181.585+598.961C211.779+580.845+228.029+548.365+265.184+540.934C308.48+532.275+388.124+653.055+423.53+601.912C436.222+583.579+424.514+584.209+388.124+529.132C362.406+490.208+321.084+470.944+285.838+435.698C275.641+425.501+264.375+416.954+253.382+408.159C250.568+405.908+236.446+391.482+237.154+392.915Z" stroke="#000000" stroke-width="1" fill="#ffffff" opacity="1" stroke-linejoin="round"/>
<text x="0" inkpad:shadowRadius="10" inkpad:shadowOpacity="0" font-family="'ArialMT'" inkpad:shadowAngle="1.5708" fill="#000000" font-size="52" opacity="1" text-anchor="start" transform="matrix(1 0 0 1 240.596 700.731)" inkpad:shadowOffset="10" y="0" inkpad:width="112.121" inkpad:text="Text" inkpad:shadowColor="#000000">
<tspan x="0" y="47" textLength="95.3672">
<![CDATA[Text]]></tspan>
</text>
</g>
</svg>


